<svg width="26" height="26" viewBox="0 0 26 26" fill="none" xmlns="http://www.w3.org/2000/svg">
<path d="M6.95524 16.3635C7.19803 16.2234 7.28115 15.9126 7.1411 15.6698C7.00086 15.4272 6.69022 15.3439 6.44743 15.4839C6.20463 15.6242 6.12132 15.935 6.26156 16.1776C6.4016 16.4204 6.71244 16.5037 6.95524 16.3635V16.3635Z" fill="white"/>
<path d="M4.87432 19.8684L7.43163 24.298C7.98348 25.2549 9.22484 25.6092 10.2065 25.0417C11.1779 24.4803 11.5118 23.2392 10.9498 22.267L9.42638 19.6279L10.7457 18.8662C10.9885 18.7258 11.0718 18.4153 10.9316 18.1725L10.2712 17.0288C10.35 17.0135 10.8677 16.9119 19.9978 15.1209C21.1265 15.0596 21.8027 13.8252 21.2326 12.8383L19.5449 9.91524L20.6234 8.28171C20.7294 8.12103 20.7357 7.91454 20.6395 7.74791L19.6239 5.98882C19.5277 5.82219 19.345 5.72459 19.1536 5.7359L17.1999 5.85313L15.3263 2.60789C15.055 2.13777 14.5688 1.85312 14.0261 1.84637C14.0195 1.84618 14.0132 1.84618 14.0066 1.84618C13.4821 1.84618 13.0061 2.10722 12.724 2.54858L6.09029 10.9993L1.77766 13.4892C0.0814433 14.4681 -0.506112 16.6442 0.476585 18.3449C1.37438 19.9001 3.26717 20.5119 4.87432 19.8684V19.8684ZM10.0705 22.775C10.351 23.2602 10.1849 23.8811 9.69834 24.1622C9.21017 24.4444 8.58849 24.2711 8.31118 23.7904L5.77212 19.3921L7.53121 18.3765C10.4698 23.4669 10.0233 22.6935 10.0705 22.775V22.775ZM8.91857 18.7482L8.41076 17.8687L9.2903 17.3608L9.79812 18.2404L8.91857 18.7482ZM18.9012 6.76839L19.6031 7.98396L18.9772 8.93175L17.7676 6.83643L18.9012 6.76839ZM13.5734 3.10539C13.7097 2.88243 13.9259 2.85942 14.0136 2.8618C14.1002 2.86279 14.3163 2.88977 14.4466 3.11551L20.3531 13.3461C20.5455 13.6792 20.3116 14.0979 19.9258 14.1075C19.8566 14.1091 19.8246 14.1216 19.6473 14.1547L13.3994 3.33292C13.5305 3.16431 13.5474 3.14804 13.5734 3.10539V3.10539ZM12.7236 4.19382L18.5938 14.3614L9.73444 16.099L7.04066 11.4333L12.7236 4.19382ZM1.35613 17.8371C1.13317 17.4513 1.01534 17.0133 1.01534 16.5702C1.01534 15.6644 1.50213 14.821 2.28547 14.3687L6.24343 12.0836L8.78249 16.4813L4.82453 18.7666C3.61193 19.4665 2.05616 19.0495 1.35613 17.8371V17.8371Z" fill="white"/>
<path d="M5.38201 16.6854C5.24177 16.4426 4.93113 16.3593 4.68833 16.4995L3.80878 17.0073C3.56638 17.1474 3.25515 17.0639 3.11511 16.8215C2.97486 16.5787 2.66422 16.4954 2.42143 16.6356C2.17863 16.7758 2.09531 17.0865 2.23556 17.3293C2.65351 18.0533 3.58582 18.3086 4.3166 17.8869L5.19614 17.3791C5.43894 17.2388 5.52225 16.9284 5.38201 16.6854V16.6854Z" fill="white"/>
<path d="M25.2452 2.93242L22.4156 4.50704C22.1706 4.64351 22.0823 4.95276 22.2188 5.19774C22.3549 5.44253 22.6639 5.53119 22.9095 5.39452L25.7389 3.81991C25.9841 3.68343 26.0722 3.37418 25.9357 3.1292C25.7994 2.88402 25.4902 2.79595 25.2452 2.93242V2.93242Z" fill="white"/>
<path d="M24.9485 8.19183L22.9864 7.66617C22.7155 7.59357 22.437 7.75424 22.3644 8.02521C22.2917 8.29617 22.4526 8.57448 22.7236 8.64708L24.6858 9.17274C24.9584 9.24594 25.2355 9.08269 25.3077 8.81371C25.3803 8.54274 25.2194 8.26424 24.9485 8.19183Z" fill="white"/>
<path d="M20.0179 1.08747L19.4917 3.04969C19.4191 3.32066 19.5797 3.59896 19.8507 3.67176C20.1215 3.74416 20.4 3.58389 20.4728 3.31272L20.9988 1.3505C21.0714 1.07954 20.9107 0.801033 20.6398 0.728432C20.369 0.655831 20.0905 0.816506 20.0179 1.08747V1.08747Z" fill="white"/>
</svg>
