<svg width="26" height="26" viewBox="0 0 26 26" fill="none" xmlns="http://www.w3.org/2000/svg">
<path d="M1.73333 1.58006C1.84826 1.58006 1.95848 1.52457 2.03975 1.4258C2.12101 1.32702 2.16667 1.19306 2.16667 1.05337V0.526686C2.16667 0.387 2.12101 0.253036 2.03975 0.154263C1.95848 0.0554901 1.84826 0 1.73333 0C1.61841 0 1.50819 0.0554901 1.42692 0.154263C1.34565 0.253036 1.3 0.387 1.3 0.526686V1.05337C1.3 1.19306 1.34565 1.32702 1.42692 1.4258C1.50819 1.52457 1.61841 1.58006 1.73333 1.58006Z" fill="white"/>
<path d="M7.31114 23.7311L11.9187 25.9982L15.677 25.1572L19.0975 23.9042C19.1598 23.8814 19.2254 23.8759 19.2896 23.8882C19.3538 23.9004 19.415 23.93 19.4685 23.9749L21.8867 26L24.5818 21.2459L20.2268 17.5986C19.7154 17.1678 19.1388 16.8646 18.5304 16.7065C17.9219 16.5484 17.2937 16.5385 16.6821 16.6775L16.3116 16.7604C15.6728 16.9045 15.0651 17.2063 14.526 17.6472C13.987 18.088 13.528 18.6585 13.1775 19.3235C13.1415 19.392 13.0929 19.4495 13.0356 19.4914C12.9783 19.5333 12.9138 19.5585 12.8471 19.565L9.15292 19.9253C9.10669 19.93 9.06074 19.9381 9.01534 19.9497C9.01441 19.9497 9.01344 19.9497 9.01252 19.9501C8.74922 20.0166 8.51416 20.1953 8.34983 20.454C8.18549 20.7128 8.10271 21.0344 8.11645 21.3608C8.13018 21.6873 8.23953 21.9969 8.42473 22.2339C8.60993 22.4709 8.85876 22.6196 9.12627 22.6531L13.5118 23.2094C13.6222 23.2233 13.724 23.2883 13.7961 23.3908C13.8683 23.4933 13.9054 23.6255 13.8997 23.7603C13.894 23.895 13.8459 24.0219 13.7655 24.1149C13.6851 24.2079 13.5783 24.2598 13.4673 24.2599C13.4522 24.2599 13.437 24.259 13.4218 24.2571L9.03597 23.7009C8.69198 23.6573 8.36325 23.5056 8.08206 23.2608C7.80088 23.0161 7.57693 22.6866 7.4322 22.3048C7.28747 21.923 7.22695 21.502 7.25658 21.0832C7.28621 20.6644 7.40498 20.2621 7.60121 19.9159C7.65995 19.8127 7.72514 19.7151 7.79621 19.6241L4.29 16.6876C4.06624 16.5001 3.79248 16.4223 3.52351 16.4696C3.25454 16.517 3.0102 16.686 2.83939 16.9429C2.66858 17.1999 2.58389 17.5257 2.60227 17.8553C2.62066 18.1848 2.74076 18.4938 2.93854 18.7204L7.31114 23.7311Z" fill="white"/>
<path d="M7.79999 6.84691C7.91488 6.84675 8.02503 6.79121 8.10626 6.69247C8.1875 6.59373 8.2332 6.45986 8.23333 6.32022V5.3186C7.94083 5.41077 7.65136 5.51676 7.36666 5.63658V6.32022C7.36679 6.45986 7.41249 6.59373 7.49372 6.69247C7.57496 6.79121 7.68511 6.84675 7.79999 6.84691Z" fill="white"/>
<path d="M3.46666 9.42681C3.46745 10.2788 3.74626 11.0957 4.24193 11.6981C4.7376 12.3006 5.40965 12.6395 6.11064 12.6405H18.156C18.7283 12.6404 19.2851 12.4147 19.7428 11.9973C20.2006 11.5798 20.5345 10.9931 20.6945 10.3253C20.8545 9.65748 20.8319 8.94459 20.6302 8.2937C20.4284 7.64282 20.0583 7.08907 19.5755 6.71563L19.1078 6.35353C18.6777 6.02122 18.2297 5.72471 17.7667 5.46606V6.32022C17.7667 6.73927 17.6297 7.14117 17.3859 7.43749C17.1421 7.73381 16.8114 7.90028 16.4667 7.90028C16.1219 7.90028 15.7912 7.73381 15.5474 7.43749C15.3036 7.14117 15.1667 6.73927 15.1667 6.32022V4.45548C14.5947 4.32312 14.0152 4.24474 13.4333 4.22104V6.32022C13.4333 6.73927 13.2964 7.14117 13.0526 7.43749C12.8088 7.73381 12.4781 7.90028 12.1333 7.90028C11.7885 7.90028 11.4579 7.73381 11.2141 7.43749C10.9703 7.14117 10.8333 6.73927 10.8333 6.32022V4.21617C10.2521 4.23026 9.67256 4.29891 9.09999 4.42151V6.32022C9.09999 6.73927 8.96303 7.14117 8.71923 7.43749C8.47544 7.73381 8.14477 7.90028 7.79999 7.90028C7.45521 7.90028 7.12455 7.73381 6.88075 7.43749C6.63696 7.14117 6.49999 6.73927 6.49999 6.32022V5.38252C5.83145 5.74162 5.19325 6.17894 4.59441 6.6883C4.24627 6.98477 3.96202 7.37881 3.76572 7.83708C3.56941 8.29535 3.46683 8.80435 3.46666 9.32101V9.42681ZM17.3333 9.48033C17.419 9.48033 17.5028 9.51122 17.5741 9.5691C17.6453 9.62697 17.7009 9.70923 17.7337 9.80547C17.7665 9.90171 17.7751 10.0076 17.7583 10.1098C17.7416 10.2119 17.7003 10.3058 17.6397 10.3794C17.5791 10.4531 17.5019 10.5033 17.4179 10.5236C17.3338 10.5439 17.2467 10.5335 17.1675 10.4936C17.0883 10.4538 17.0206 10.3862 16.973 10.2996C16.9254 10.213 16.9 10.1112 16.9 10.007C16.9 9.86733 16.9456 9.73337 17.0269 9.6346C17.1082 9.53582 17.2184 9.48033 17.3333 9.48033ZM15.6 10.5337C15.6857 10.5337 15.7695 10.5646 15.8407 10.6225C15.912 10.6803 15.9675 10.7626 16.0003 10.8588C16.0331 10.9551 16.0417 11.061 16.025 11.1631C16.0083 11.2653 15.967 11.3592 15.9064 11.4328C15.8458 11.5065 15.7686 11.5566 15.6845 11.577C15.6005 11.5973 15.5133 11.5869 15.4342 11.547C15.355 11.5071 15.2873 11.4396 15.2397 11.353C15.1921 11.2664 15.1667 11.1646 15.1667 11.0604C15.1667 10.9207 15.2123 10.7867 15.2936 10.688C15.3748 10.5892 15.4851 10.5337 15.6 10.5337ZM13.8667 9.48033C13.9524 9.48033 14.0361 9.51122 14.1074 9.5691C14.1787 9.62697 14.2342 9.70923 14.267 9.80547C14.2998 9.90171 14.3084 10.0076 14.2917 10.1098C14.2749 10.2119 14.2337 10.3058 14.1731 10.3794C14.1125 10.4531 14.0353 10.5033 13.9512 10.5236C13.8671 10.5439 13.78 10.5335 13.7008 10.4936C13.6217 10.4538 13.554 10.3862 13.5064 10.2996C13.4587 10.213 13.4333 10.1112 13.4333 10.007C13.4333 9.86733 13.479 9.73337 13.5602 9.6346C13.6415 9.53582 13.7517 9.48033 13.8667 9.48033ZM12.1333 10.5337C12.219 10.5337 12.3028 10.5646 12.3741 10.6225C12.4453 10.6803 12.5009 10.7626 12.5337 10.8588C12.5665 10.9551 12.5751 11.061 12.5583 11.1631C12.5416 11.2653 12.5003 11.3592 12.4397 11.4328C12.3791 11.5065 12.3019 11.5566 12.2179 11.577C12.1338 11.5973 12.0467 11.5869 11.9675 11.547C11.8883 11.5071 11.8206 11.4396 11.773 11.353C11.7254 11.2664 11.7 11.1646 11.7 11.0604C11.7 10.9207 11.7456 10.7867 11.8269 10.688C11.9082 10.5892 12.0184 10.5337 12.1333 10.5337ZM10.4 9.48033C10.4857 9.48033 10.5695 9.51122 10.6407 9.5691C10.712 9.62697 10.7675 9.70923 10.8003 9.80547C10.8331 9.90171 10.8417 10.0076 10.825 10.1098C10.8083 10.2119 10.767 10.3058 10.7064 10.3794C10.6458 10.4531 10.5686 10.5033 10.4845 10.5236C10.4005 10.5439 10.3133 10.5335 10.2342 10.4936C10.155 10.4538 10.0873 10.3862 10.0397 10.2996C9.99207 10.213 9.96666 10.1112 9.96666 10.007C9.96666 9.86733 10.0123 9.73337 10.0936 9.6346C10.1748 9.53582 10.2851 9.48033 10.4 9.48033ZM8.66666 10.5337C8.75237 10.5337 8.83615 10.5646 8.90741 10.6225C8.97867 10.6803 9.03421 10.7626 9.06701 10.8588C9.09981 10.9551 9.10839 11.061 9.09167 11.1631C9.07495 11.2653 9.03368 11.3592 8.97307 11.4328C8.91247 11.5065 8.83526 11.5566 8.7512 11.577C8.66714 11.5973 8.58001 11.5869 8.50083 11.547C8.42165 11.5071 8.35397 11.4396 8.30636 11.353C8.25874 11.2664 8.23333 11.1646 8.23333 11.0604C8.23333 10.9207 8.27898 10.7867 8.36025 10.688C8.44151 10.5892 8.55173 10.5337 8.66666 10.5337ZM6.93333 9.48033C7.01903 9.48033 7.10281 9.51122 7.17407 9.5691C7.24534 9.62697 7.30088 9.70923 7.33367 9.80547C7.36647 9.90171 7.37505 10.0076 7.35833 10.1098C7.34161 10.2119 7.30034 10.3058 7.23974 10.3794C7.17914 10.4531 7.10192 10.5033 7.01787 10.5236C6.93381 10.5439 6.84668 10.5335 6.7675 10.4936C6.68832 10.4538 6.62064 10.3862 6.57302 10.2996C6.52541 10.213 6.49999 10.1112 6.49999 10.007C6.49999 9.86733 6.54565 9.73337 6.62691 9.6346C6.70818 9.53582 6.8184 9.48033 6.93333 9.48033Z" fill="white"/>
<path d="M12.1333 6.84692C12.2482 6.84676 12.3584 6.79122 12.4396 6.69248C12.5208 6.59374 12.5665 6.45987 12.5667 6.32023V5.26686H11.7V6.32023C11.7001 6.45987 11.7458 6.59374 11.8271 6.69248C11.9083 6.79122 12.0184 6.84676 12.1333 6.84692Z" fill="white"/>
<path d="M16.4667 6.84695C16.5816 6.84679 16.6917 6.79125 16.7729 6.69251C16.8542 6.59377 16.8999 6.4599 16.9 6.32026V5.63109C16.6156 5.506 16.3258 5.39408 16.0333 5.29684V6.32026C16.0335 6.4599 16.0792 6.59377 16.1604 6.69251C16.2416 6.79125 16.3518 6.84679 16.4667 6.84695Z" fill="white"/>
<path d="M1.73333 4.74017C1.84826 4.74017 1.95848 4.68468 2.03975 4.58591C2.12101 4.48713 2.16667 4.35317 2.16667 4.21348V3.6868C2.16667 3.54711 2.12101 3.41315 2.03975 3.31437C1.95848 3.2156 1.84826 3.16011 1.73333 3.16011C1.61841 3.16011 1.50819 3.2156 1.42692 3.31437C1.34565 3.41315 1.3 3.54711 1.3 3.6868V4.21348C1.3 4.35317 1.34565 4.48713 1.42692 4.58591C1.50819 4.68468 1.61841 4.74017 1.73333 4.74017Z" fill="white"/>
<path d="M0.866667 2.63343V2.10674C0.866667 1.96706 0.821012 1.83309 0.739746 1.73432C0.65848 1.63555 0.54826 1.58006 0.433333 1.58006C0.318406 1.58006 0.208186 1.63555 0.12692 1.73432C0.0456546 1.83309 0 1.96706 0 2.10674V2.63343C0 2.77311 0.0456546 2.90708 0.12692 3.00585C0.208186 3.10462 0.318406 3.16011 0.433333 3.16011C0.54826 3.16011 0.65848 3.10462 0.739746 3.00585C0.821012 2.90708 0.866667 2.77311 0.866667 2.63343Z" fill="white"/>
<path d="M3.03333 3.16011C3.14826 3.16011 3.25848 3.10462 3.33974 3.00585C3.42101 2.90708 3.46666 2.77311 3.46666 2.63343V2.10674C3.46666 1.96706 3.42101 1.83309 3.33974 1.73432C3.25848 1.63555 3.14826 1.58006 3.03333 1.58006C2.9184 1.58006 2.80818 1.63555 2.72692 1.73432C2.64565 1.83309 2.6 1.96706 2.6 2.10674V2.63343C2.6 2.77311 2.64565 2.90708 2.72692 3.00585C2.80818 3.10462 2.9184 3.16011 3.03333 3.16011Z" fill="white"/>
<path d="M24.2667 13.1672C24.3816 13.1672 24.4918 13.1117 24.5731 13.0129C24.6544 12.9141 24.7 12.7802 24.7 12.6405V12.1138C24.7 11.9741 24.6544 11.8401 24.5731 11.7414C24.4918 11.6426 24.3816 11.5871 24.2667 11.5871C24.1517 11.5871 24.0415 11.6426 23.9603 11.7414C23.879 11.8401 23.8333 11.9741 23.8333 12.1138V12.6405C23.8333 12.7802 23.879 12.9141 23.9603 13.0129C24.0415 13.1117 24.1517 13.1672 24.2667 13.1672Z" fill="white"/>
<path d="M24.2667 16.3273C24.3816 16.3273 24.4918 16.2718 24.5731 16.173C24.6544 16.0742 24.7 15.9403 24.7 15.8006V15.2739C24.7 15.1342 24.6544 15.0002 24.5731 14.9015C24.4918 14.8027 24.3816 14.7472 24.2667 14.7472C24.1517 14.7472 24.0415 14.8027 23.9603 14.9015C23.879 15.0002 23.8333 15.1342 23.8333 15.2739V15.8006C23.8333 15.9403 23.879 16.0742 23.9603 16.173C24.0415 16.2718 24.1517 16.3273 24.2667 16.3273Z" fill="white"/>
<path d="M22.9667 14.6682C23.0816 14.6682 23.1918 14.6127 23.2731 14.514C23.3544 14.4152 23.4 14.2812 23.4 14.1415V13.6149C23.4 13.4752 23.3544 13.3412 23.2731 13.2424C23.1918 13.1437 23.0816 13.0882 22.9667 13.0882C22.8517 13.0882 22.7415 13.1437 22.6603 13.2424C22.579 13.3412 22.5333 13.4752 22.5333 13.6149V14.1415C22.5333 14.2812 22.579 14.4152 22.6603 14.514C22.7415 14.6127 22.8517 14.6682 22.9667 14.6682Z" fill="white"/>
<path d="M25.5667 13.1672C25.4517 13.1672 25.3415 13.2226 25.2603 13.3214C25.179 13.4202 25.1333 13.5542 25.1333 13.6938V14.2205C25.1333 14.3602 25.179 14.4942 25.2603 14.5929C25.3415 14.6917 25.4517 14.7472 25.5667 14.7472C25.6816 14.7472 25.7918 14.6917 25.8731 14.5929C25.9544 14.4942 26 14.3602 26 14.2205V13.6938C26 13.5542 25.9544 13.4202 25.8731 13.3214C25.7918 13.2226 25.6816 13.1672 25.5667 13.1672Z" fill="white"/>
</svg>
