<svg width="26" height="26" viewBox="0 0 26 26" fill="none" xmlns="http://www.w3.org/2000/svg">
<g clip-path="url(#clip0)">
<path d="M23.6065 3.26351H19.4729V0.761719C19.4729 0.341047 19.1319 0 18.7112 0H0.761719C0.341047 0 0 0.341047 0 0.761719V21.9747C0 24.1943 1.80573 26 4.02528 26C4.02528 26 16.6791 26 21.9748 26C24.1978 26 26 24.1978 26 21.9747V5.65698C26 4.33723 24.9263 3.26351 23.6065 3.26351V3.26351ZM21.3754 4.78695C21.2688 5.06055 21.2131 5.35448 21.2131 5.65703V8.15887H19.4729V4.787H21.3754V4.78695ZM4.02528 24.4765C2.64575 24.4765 1.52344 23.3542 1.52344 21.9747V1.52344H17.9495V21.9747C17.9495 22.9205 18.2765 23.7895 18.8226 24.4765H4.02528ZM24.4766 21.9747C24.4766 23.3565 23.3565 24.4766 21.9747 24.4766C20.8587 24.4766 19.9136 23.7456 19.5914 22.7364H21.9747C22.3954 22.7364 22.7364 22.3954 22.7364 21.9747C22.7364 21.5541 22.3954 21.213 21.9747 21.213H19.4729V19.4729H21.9747C22.3954 19.4729 22.7364 19.1318 22.7364 18.7112C22.7364 18.2905 22.3954 17.9494 21.9747 17.9494H19.4729V16.2093H21.9747C22.3954 16.2093 22.7364 15.8683 22.7364 15.4476C22.7364 15.0269 22.3954 14.6859 21.9747 14.6859H19.4729V12.9458H21.9747C22.3954 12.9458 22.7364 12.6047 22.7364 12.184C22.7364 11.7634 22.3954 11.4223 21.9747 11.4223H19.4729V9.68221H21.9747C22.3954 9.68221 22.7364 9.34116 22.7364 8.92049V5.65703C22.7364 5.18177 23.1207 4.78695 23.6065 4.78695C24.0862 4.78695 24.4765 5.1773 24.4765 5.65703V21.9747H24.4766Z" fill="white"/>
<path d="M15.4477 3.26351H4.0253C3.60463 3.26351 3.26358 3.60456 3.26358 4.02523C3.26358 4.4459 3.60463 4.78695 4.0253 4.78695H15.4477C15.8684 4.78695 16.2094 4.4459 16.2094 4.02523C16.2094 3.60456 15.8684 3.26351 15.4477 3.26351Z" fill="white"/>
<path d="M15.4477 14.6859H11.3683C10.9476 14.6859 10.6065 15.027 10.6065 15.4476C10.6065 15.8683 10.9476 16.2094 11.3683 16.2094H15.4477C15.8683 16.2094 16.2094 15.8683 16.2094 15.4476C16.2094 15.027 15.8683 14.6859 15.4477 14.6859Z" fill="white"/>
<path d="M8.10471 14.6859H4.0253C3.60463 14.6859 3.26358 15.027 3.26358 15.4476C3.26358 15.8683 3.60463 16.2094 4.0253 16.2094H8.10471C8.52538 16.2094 8.86643 15.8683 8.86643 15.4476C8.86643 15.027 8.52538 14.6859 8.10471 14.6859Z" fill="white"/>
<path d="M15.4477 21.213H11.3683C10.9476 21.213 10.6065 21.554 10.6065 21.9747C10.6065 22.3954 10.9476 22.7364 11.3683 22.7364H15.4477C15.8683 22.7364 16.2094 22.3954 16.2094 21.9747C16.2094 21.554 15.8683 21.213 15.4477 21.213Z" fill="white"/>
<path d="M8.10471 21.213H4.0253C3.60463 21.213 3.26358 21.554 3.26358 21.9747C3.26358 22.3954 3.60463 22.7364 4.0253 22.7364H8.10471C8.52538 22.7364 8.86643 22.3954 8.86643 21.9747C8.86643 21.554 8.52538 21.213 8.10471 21.213Z" fill="white"/>
<path d="M15.4477 17.9494H11.3683C10.9476 17.9494 10.6065 18.2905 10.6065 18.7112C10.6065 19.1318 10.9476 19.4729 11.3683 19.4729H15.4477C15.8683 19.4729 16.2094 19.1318 16.2094 18.7112C16.2094 18.2905 15.8683 17.9494 15.4477 17.9494Z" fill="white"/>
<path d="M8.10471 17.9494H4.0253C3.60463 17.9494 3.26358 18.2905 3.26358 18.7112C3.26358 19.1318 3.60463 19.4729 4.0253 19.4729H8.10471C8.52538 19.4729 8.86643 19.1318 8.86643 18.7112C8.86643 18.2905 8.52538 17.9494 8.10471 17.9494Z" fill="white"/>
<path d="M15.4477 6.52702H4.0253C3.60463 6.52702 3.26358 6.86807 3.26358 7.28874V12.1841C3.26358 12.6047 3.60463 12.9458 4.0253 12.9458H15.4477C15.8684 12.9458 16.2094 12.6047 16.2094 12.1841V7.28874C16.2094 6.86807 15.8684 6.52702 15.4477 6.52702ZM14.686 11.4224H4.78702V8.05051H14.686V11.4224Z" fill="white"/>
</g>
<defs>
<clipPath id="clip0">
<rect width="26" height="26" fill="white"/>
</clipPath>
</defs>
</svg>
