<svg width="26" height="26" viewBox="0 0 26 26" fill="none" xmlns="http://www.w3.org/2000/svg">
<path d="M24.0448 9.99982L6.26594 0.533929C4.97968 -0.150045 3.42455 -0.178483 2.10589 0.457858C0.787234 1.0941 0 2.25298 0 3.5576V22.4032C0 24.3758 1.84021 25.9893 4.10196 25.9999C4.10814 25.9999 4.11431 26 4.12037 26C4.82717 26 5.56372 25.8086 6.25166 25.446C6.80507 25.1544 6.97998 24.5305 6.64234 24.0525C6.30469 23.5745 5.58224 23.4235 5.02901 23.7151C4.70723 23.8846 4.39299 23.9723 4.1146 23.9723C3.26123 23.9682 2.34753 23.3368 2.34753 22.4032V3.55765C2.34753 2.99799 2.68524 2.50099 3.25082 2.22804C3.81647 1.95509 4.48347 1.96728 5.03453 2.26034L22.8135 11.7262C23.3479 12.0104 23.6536 12.4842 23.6523 13.0263C23.651 13.5683 23.343 14.041 22.8057 14.3243L9.95148 21.1223C9.39859 21.4147 9.2248 22.0388 9.56333 22.5163C9.9018 22.9938 10.6244 23.144 11.1773 22.8516L24.03 16.0544C25.2606 15.406 25.9971 14.2756 26 13.0303C26.0029 11.7853 25.2718 10.6523 24.0448 9.99982Z" fill="white"/>
</svg>
